<svg width="100" height="99" viewBox="0 0 100 99" fill="none" xmlns="http://www.w3.org/2000/svg">
<g filter="url(#filter0_d_95_688)">
<rect x="36" y="12" width="44" height="43" rx="21.5" fill="white" shape-rendering="crispEdges"/>
<path d="M52.5329 24.4999C52.364 24.6573 52.23 24.8443 52.1385 25.0501C52.0471 25.256 52 25.4767 52 25.6995C52 25.9224 52.0471 26.1431 52.1385 26.3489C52.23 26.5548 52.364 26.7417 52.5329 26.8992L59.6037 33.5015L52.5329 40.1038C52.1922 40.422 52.0008 40.8535 52.0008 41.3034C52.0008 41.7534 52.1922 42.1849 52.5329 42.5031C52.8737 42.8213 53.3358 43 53.8177 43C54.2996 43 54.7617 42.8213 55.1025 42.5031L63.4671 34.6926C63.636 34.5352 63.77 34.3482 63.8615 34.1424C63.9529 33.9365 64 33.7158 64 33.493C64 33.2701 63.9529 33.0494 63.8615 32.8436C63.77 32.6377 63.636 32.4508 63.4671 32.2933L55.1025 24.4829C54.41 23.8362 53.2437 23.8362 52.5329 24.4999Z" fill="#929292"/>
</g>
<defs>
<filter id="filter0_d_95_688" x="0" y="0" width="100" height="99" filterUnits="userSpaceOnUse" color-interpolation-filters="sRGB">
<feFlood flood-opacity="0" result="BackgroundImageFix"/>
<feColorMatrix in="SourceAlpha" type="matrix" values="0 0 0 0 0 0 0 0 0 0 0 0 0 0 0 0 0 0 127 0" result="hardAlpha"/>
<feOffset dx="-8" dy="16"/>
<feGaussianBlur stdDeviation="14"/>
<feComposite in2="hardAlpha" operator="out"/>
<feColorMatrix type="matrix" values="0 0 0 0 0.507617 0 0 0 0 0.507617 0 0 0 0 0.507617 0 0 0 0.15 0"/>
<feBlend mode="normal" in2="BackgroundImageFix" result="effect1_dropShadow_95_688"/>
<feBlend mode="normal" in="SourceGraphic" in2="effect1_dropShadow_95_688" result="shape"/>
</filter>
</defs>
</svg>
