<svg width="100" height="99" viewBox="0 0 100 99" fill="none" xmlns="http://www.w3.org/2000/svg">
<g filter="url(#filter0_d_530_52)">
<rect x="80" y="55" width="44" height="43" rx="21.5" transform="rotate(-180 80 55)" fill="white" shape-rendering="crispEdges"/>
<path d="M63.4671 42.5001C63.636 42.3427 63.77 42.1557 63.8615 41.9499C63.9529 41.744 64 41.5233 64 41.3005C64 41.0776 63.9529 40.8569 63.8615 40.6511C63.77 40.4452 63.636 40.2583 63.4671 40.1008L56.3963 33.4985L63.4671 26.8962C63.8078 26.578 63.9992 26.1465 63.9992 25.6966C63.9992 25.2466 63.8078 24.8151 63.4671 24.4969C63.1263 24.1787 62.6642 24 62.1823 24C61.7004 24 61.2383 24.1787 60.8975 24.4969L52.5329 32.3074C52.364 32.4648 52.23 32.6518 52.1385 32.8576C52.0471 33.0635 52 33.2842 52 33.507C52 33.7299 52.0471 33.9506 52.1385 34.1564C52.23 34.3623 52.364 34.5492 52.5329 34.7067L60.8975 42.5171C61.59 43.1638 62.7563 43.1638 63.4671 42.5001Z" fill="#929292"/>
</g>
<defs>
<filter id="filter0_d_530_52" x="0" y="0" width="100" height="99" filterUnits="userSpaceOnUse" color-interpolation-filters="sRGB">
<feFlood flood-opacity="0" result="BackgroundImageFix"/>
<feColorMatrix in="SourceAlpha" type="matrix" values="0 0 0 0 0 0 0 0 0 0 0 0 0 0 0 0 0 0 127 0" result="hardAlpha"/>
<feOffset dx="-8" dy="16"/>
<feGaussianBlur stdDeviation="14"/>
<feComposite in2="hardAlpha" operator="out"/>
<feColorMatrix type="matrix" values="0 0 0 0 0.507617 0 0 0 0 0.507617 0 0 0 0 0.507617 0 0 0 0.15 0"/>
<feBlend mode="normal" in2="BackgroundImageFix" result="effect1_dropShadow_530_52"/>
<feBlend mode="normal" in="SourceGraphic" in2="effect1_dropShadow_530_52" result="shape"/>
</filter>
</defs>
</svg>
