<svg width="247" height="48" viewBox="0 0 247 48" fill="none" xmlns="http://www.w3.org/2000/svg">
<path d="M68.9973 13.4832C71.2137 13.4832 73.1505 13.9225 74.8077 14.801C76.465 15.6796 77.7429 16.9176 78.6414 18.5149C79.5599 20.0923 80.0192 21.9193 80.0192 23.9959C80.0192 26.0525 79.5599 27.8795 78.6414 29.4769C77.7429 31.0742 76.455 32.3122 74.7778 33.1908C73.1205 34.0693 71.1937 34.5086 68.9973 34.5086H61.1203V13.4832H68.9973ZM68.6678 30.0759C70.6047 30.0759 72.1122 29.5468 73.1904 28.4885C74.2686 27.4302 74.8077 25.9327 74.8077 23.9959C74.8077 22.0591 74.2686 20.5516 73.1904 19.4733C72.1122 18.3951 70.6047 17.856 68.6678 17.856H66.2418V30.0759H68.6678Z" fill="#479E10"/>
<path d="M81.863 26.1224C81.863 24.4052 82.1825 22.8977 82.8214 21.5998C83.4803 20.302 84.3689 19.3036 85.487 18.6048C86.6052 17.9059 87.8531 17.5565 89.2309 17.5565C90.4089 17.5565 91.4372 17.7961 92.3158 18.2753C93.2143 18.7545 93.9032 19.3835 94.3824 20.1622V17.7961H99.5039V34.5086H94.3824V32.1425C93.8832 32.9212 93.1843 33.5502 92.2858 34.0294C91.4073 34.5086 90.379 34.7482 89.2009 34.7482C87.8431 34.7482 86.6052 34.3988 85.487 33.6999C84.3689 32.9811 83.4803 31.9728 82.8214 30.6749C82.1825 29.3571 81.863 27.8396 81.863 26.1224ZM94.3824 26.1523C94.3824 24.8745 94.023 23.8661 93.3041 23.1273C92.6053 22.3885 91.7467 22.0192 90.7284 22.0192C89.7101 22.0192 88.8415 22.3885 88.1227 23.1273C87.4238 23.8461 87.0744 24.8445 87.0744 26.1224C87.0744 27.4003 87.4238 28.4186 88.1227 29.1774C88.8415 29.9161 89.7101 30.2855 90.7284 30.2855C91.7467 30.2855 92.6053 29.9161 93.3041 29.1774C94.023 28.4386 94.3824 27.4302 94.3824 26.1523Z" fill="#479E10"/>
<path d="M108.331 20.1622C108.83 19.3835 109.519 18.7545 110.397 18.2753C111.276 17.7961 112.304 17.5565 113.482 17.5565C114.86 17.5565 116.108 17.9059 117.226 18.6048C118.344 19.3036 119.223 20.302 119.862 21.5998C120.521 22.8977 120.85 24.4052 120.85 26.1224C120.85 27.8396 120.521 29.3571 119.862 30.6749C119.223 31.9728 118.344 32.9811 117.226 33.6999C116.108 34.3988 114.86 34.7482 113.482 34.7482C112.324 34.7482 111.296 34.5086 110.397 34.0294C109.519 33.5502 108.83 32.9312 108.331 32.1724V42.4755H103.209V17.7961H108.331V20.1622ZM115.639 26.1224C115.639 24.8445 115.279 23.8461 114.56 23.1273C113.862 22.3885 112.993 22.0192 111.955 22.0192C110.936 22.0192 110.068 22.3885 109.349 23.1273C108.65 23.8661 108.301 24.8745 108.301 26.1523C108.301 27.4302 108.65 28.4386 109.349 29.1774C110.068 29.9161 110.936 30.2855 111.955 30.2855C112.973 30.2855 113.842 29.9161 114.56 29.1774C115.279 28.4186 115.639 27.4003 115.639 26.1224Z" fill="#479E10"/>
<path d="M140.04 17.7961V34.5086H134.918V32.2323C134.399 32.9711 133.69 33.5701 132.792 34.0294C131.913 34.4687 130.935 34.6883 129.857 34.6883C128.579 34.6883 127.451 34.4088 126.472 33.8497C125.494 33.2706 124.735 32.442 124.196 31.3638C123.657 30.2855 123.387 29.0176 123.387 27.56V17.7961H128.479V26.8712C128.479 27.9893 128.768 28.8579 129.347 29.4769C129.926 30.0959 130.705 30.4053 131.684 30.4053C132.682 30.4053 133.471 30.0959 134.05 29.4769C134.629 28.8579 134.918 27.9893 134.918 26.8712V17.7961H140.04Z" fill="#479E10"/>
<path d="M148.84 20.5815C149.439 19.663 150.188 18.9442 151.086 18.4251C151.985 17.886 152.983 17.6164 154.082 17.6164V23.0375H152.674C151.396 23.0375 150.438 23.317 149.799 23.8761C149.16 24.4152 148.84 25.3736 148.84 26.7514V34.5086H143.719V17.7961H148.84V20.5815Z" fill="#479E10"/>
<path d="M170.936 19.7429C170.936 21.48 170.337 22.9277 169.139 24.0858C167.961 25.2239 166.154 25.7929 163.718 25.7929H159.704V34.5086H156.979V13.633H163.718C166.074 13.633 167.861 14.202 169.079 15.3402C170.317 16.4783 170.936 17.9459 170.936 19.7429ZM163.718 23.5466C165.235 23.5466 166.353 23.2172 167.072 22.5583C167.791 21.8994 168.15 20.9609 168.15 19.7429C168.15 17.1671 166.673 15.8793 163.718 15.8793H159.704V23.5466H163.718Z" fill="#479E10"/>
<path d="M173.305 26.2422C173.305 24.565 173.644 23.0974 174.323 21.8395C175.002 20.5616 175.931 19.5732 177.109 18.8743C178.307 18.1755 179.635 17.8261 181.092 17.8261C182.53 17.8261 183.778 18.1356 184.836 18.7545C185.894 19.3735 186.683 20.1522 187.202 21.0907V18.0956H189.958V34.5086H187.202V31.4536C186.663 32.412 185.854 33.2107 184.776 33.8497C183.718 34.4687 182.48 34.7781 181.062 34.7781C179.605 34.7781 178.287 34.4187 177.109 33.6999C175.931 32.9811 175.002 31.9728 174.323 30.6749C173.644 29.377 173.305 27.8995 173.305 26.2422ZM187.202 26.2722C187.202 25.0342 186.952 23.956 186.453 23.0375C185.954 22.119 185.275 21.4201 184.417 20.9409C183.578 20.4418 182.65 20.1922 181.631 20.1922C180.613 20.1922 179.684 20.4318 178.846 20.911C178.007 21.3902 177.338 22.089 176.839 23.0075C176.34 23.926 176.09 25.0042 176.09 26.2422C176.09 27.5001 176.34 28.5983 176.839 29.5368C177.338 30.4553 178.007 31.1641 178.846 31.6633C179.684 32.1425 180.613 32.3821 181.631 32.3821C182.65 32.3821 183.578 32.1425 184.417 31.6633C185.275 31.1641 185.954 30.4553 186.453 29.5368C186.952 28.5983 187.202 27.5101 187.202 26.2722Z" fill="#479E10"/>
<path d="M202.56 17.7961C204.557 17.7961 206.174 18.4051 207.412 19.6231C208.65 20.8211 209.269 22.5583 209.269 24.8345V34.5086H206.574V25.2239C206.574 23.5866 206.164 22.3386 205.346 21.48C204.527 20.6015 203.409 20.1622 201.991 20.1622C200.554 20.1622 199.405 20.6115 198.547 21.51C197.708 22.4085 197.289 23.7164 197.289 25.4335V34.5086H194.563V18.0956H197.289V20.4318C197.828 19.5932 198.557 18.9442 199.475 18.485C200.414 18.0257 201.442 17.7961 202.56 17.7961Z" fill="#479E10"/>
<path d="M228.697 25.6731C228.697 26.1923 228.667 26.7414 228.607 27.3204H215.488C215.588 28.9378 216.137 30.2057 217.136 31.1242C218.154 32.0227 219.382 32.4719 220.82 32.4719C221.998 32.4719 222.976 32.2024 223.755 31.6633C224.553 31.1042 225.113 30.3654 225.432 29.4469H228.367C227.928 31.0243 227.049 32.3122 225.732 33.3106C224.414 34.2889 222.776 34.7781 220.82 34.7781C219.262 34.7781 217.864 34.4287 216.627 33.7299C215.409 33.031 214.45 32.0426 213.751 30.7648C213.052 29.4669 212.703 27.9694 212.703 26.2722C212.703 24.5749 213.042 23.0874 213.721 21.8095C214.4 20.5316 215.349 19.5532 216.567 18.8743C217.805 18.1755 219.222 17.8261 220.82 17.8261C222.377 17.8261 223.755 18.1655 224.953 18.8444C226.151 19.5233 227.069 20.4617 227.708 21.6597C228.367 22.8378 228.697 24.1756 228.697 25.6731ZM225.881 25.1041C225.881 24.0658 225.652 23.1772 225.192 22.4385C224.733 21.6797 224.104 21.1107 223.306 20.7313C222.527 20.3319 221.658 20.1323 220.7 20.1323C219.322 20.1323 218.144 20.5715 217.166 21.4501C216.207 22.3286 215.658 23.5466 215.518 25.1041H225.881Z" fill="#479E10"/>
<path d="M240.291 17.7961C242.288 17.7961 243.905 18.4051 245.143 19.6231C246.381 20.8211 247 22.5583 247 24.8345V34.5086H244.304V25.2239C244.304 23.5866 243.895 22.3386 243.076 21.48C242.258 20.6015 241.14 20.1622 239.722 20.1622C238.284 20.1622 237.136 20.6115 236.278 21.51C235.439 22.4085 235.02 23.7164 235.02 25.4335V34.5086H232.294V18.0956H235.02V20.4318C235.559 19.5932 236.288 18.9442 237.206 18.485C238.145 18.0257 239.173 17.7961 240.291 17.7961Z" fill="#479E10"/>
<path fill-rule="evenodd" clip-rule="evenodd" d="M21.4048 0.569657C16.4486 0.964822 11.8133 2.90513 8.07366 6.1499C7.45525 6.68653 6.14281 8.01159 5.6034 8.64392C2.39594 12.4041 0.475043 17.0443 0.0432224 22.0752C-0.0420972 23.0695 0.00627988 25.9005 0.123759 26.791C0.582242 30.265 1.56023 33.1795 3.20741 35.9807C3.8908 37.1429 4.51057 38.0211 5.57234 39.3317C5.95765 39.8073 7.6779 41.527 8.23858 41.9971C10.9835 44.2985 13.9635 45.8579 17.3093 46.7436C22.2291 48.0459 27.5372 47.6569 32.2072 45.6518C33.9064 44.9222 35.5927 43.9476 36.9839 42.8911C39.9963 40.6034 42.3965 37.6857 43.9999 34.3625C45.2736 31.7228 46.003 29.0974 46.2891 26.123C46.3785 25.1947 46.3789 22.8268 46.2899 21.8918C46.1575 20.5009 45.945 19.2926 45.5945 17.9391C45.2324 16.5409 44.7539 15.2281 44.113 13.875C41.8687 9.13629 38.1571 5.30941 33.531 2.96447C29.827 1.08691 25.5389 0.240075 21.4048 0.569657ZM14.3842 8.25533C15.2914 8.44116 16.0133 8.77442 16.4755 9.22069C17.0494 9.77474 17.2251 10.2035 17.2196 11.0357C17.2154 11.6647 17.0886 12.1198 16.7434 12.7443C16.1801 13.7635 14.9366 14.8317 13.5436 15.4932C12.6021 15.9402 12.4223 15.9497 12.2349 15.562C12.1451 15.3763 12.1435 15.3413 12.2176 15.196C12.2628 15.1077 12.4187 14.9383 12.5643 14.8195C13.2743 14.24 14.1282 13.2892 14.5009 12.6631C14.712 12.3084 14.8355 11.892 14.8355 11.5345C14.8355 11.2575 14.8068 11.1509 14.6763 10.9425C14.2963 10.3356 13.3388 9.89895 11.7615 9.6129C11.2539 9.52088 11.0862 9.39222 11.0862 9.09476C11.0862 8.95246 11.1265 8.84006 11.2096 8.75048C11.3562 8.59254 12.1396 8.28216 12.5815 8.20706C12.9357 8.14688 13.9929 8.17516 14.3842 8.25533ZM14.1758 9.31377C14.908 9.67865 15.3603 10.1032 15.6252 10.6738C15.7755 10.9976 15.7932 11.0913 15.7935 11.5646C15.7938 12.0125 15.7713 12.1485 15.6464 12.4527C15.5653 12.6502 15.5053 12.8181 15.5129 12.8259C15.5611 12.8747 16.018 12.0728 16.1381 11.7287C16.3858 11.0191 16.3199 10.4896 15.9277 10.0385C15.6096 9.67247 14.9182 9.34122 14.1758 9.19914C14.0699 9.17888 13.9339 9.15015 13.8734 9.13529C13.8129 9.12042 13.949 9.20076 14.1758 9.31377ZM23.4008 12.4013C23.5427 12.4327 23.7701 12.4817 23.9062 12.5101C26.5568 13.0628 26.5985 13.0763 27.0947 13.5463C27.8436 14.2558 27.9925 15.297 27.512 16.4654C27.4839 16.5339 27.5553 16.565 27.8768 16.6247C30.2133 17.058 31.1307 17.4273 31.9619 18.2692C32.4367 18.7502 32.7481 19.2668 32.8702 19.7763C32.9068 19.9294 32.9541 20.0742 32.9751 20.0981C32.9961 20.1221 33.1597 20.1004 33.3386 20.0499C34.0811 19.8405 34.3258 19.8016 34.6811 19.8365C35.2663 19.8939 35.6958 20.101 36.1241 20.5324C37.2293 21.6453 37.2764 23.3489 36.2288 24.3217C36.0522 24.4856 35.8235 24.6631 35.7205 24.7161C35.5415 24.808 34.0887 25.3359 33.489 25.5268L33.204 25.6176L33.1835 27.9858L33.1628 30.3541L33.0141 30.8392C32.7615 31.6632 32.4084 32.2428 31.8264 32.7884C31.3756 33.2112 30.8849 33.4875 30.1986 33.7052L29.7059 33.8615H23.5488C17.0246 33.8615 17.218 33.8686 16.4847 33.602C15.1752 33.126 14.2059 31.9591 13.9023 30.4933C13.8037 30.0176 13.7926 29.7459 13.7918 27.7921L13.7909 25.6197L13.5023 25.5282C12.9535 25.3541 11.6184 24.8644 11.3326 24.7323C10.9894 24.5737 10.5362 24.1584 10.3441 23.8264C9.75718 22.8122 9.94327 21.5251 10.8145 20.5717C11.1569 20.1971 11.603 19.9574 12.1395 19.8597C12.5727 19.7808 12.8019 19.8105 13.6654 20.0577L14.3371 20.2499L21.7726 20.2358L29.2081 20.2217L28.6049 20.0987C28.2732 20.0312 27.3956 19.8484 26.6549 19.6926C25.9141 19.5368 25.1967 19.3866 25.0606 19.3587C24.9246 19.3309 24.2071 19.1808 23.4664 19.025C22.7256 18.8692 21.8845 18.6939 21.5973 18.6353C21.31 18.5768 20.5926 18.4263 20.003 18.301C19.4134 18.1756 18.696 18.0252 18.4088 17.9668C18.1215 17.9083 17.5773 17.7949 17.1993 17.7147C16.8214 17.6346 15.9803 17.4584 15.3302 17.3233C14.289 17.1068 14.1335 17.0606 14.0246 16.9346C13.8383 16.7192 13.8636 16.4802 14.1102 16.125C14.4976 15.567 14.9168 15.2102 15.5058 14.9369C16.4762 14.4865 17.4354 14.4494 19.1418 14.796C19.7512 14.9197 20.3056 15.0352 20.3738 15.0525C20.491 15.0823 20.4978 15.0675 20.4978 14.7845C20.4978 14.4016 20.6555 13.8252 20.8542 13.4818C21.3617 12.6048 22.3769 12.174 23.4008 12.4013ZM12.7327 13.377C12.9382 13.6134 12.8987 13.8297 12.6019 14.0938C11.5282 15.0493 11.1894 15.6279 11.2931 16.3285C11.3499 16.7122 11.8174 17.3387 12.3616 17.7604C12.7511 18.0623 12.7792 18.0792 13.4478 18.4158C13.758 18.5719 14.0363 18.7461 14.0663 18.8029C14.2424 19.1362 14.0132 19.5264 13.6422 19.5249C13.3401 19.5236 12.4936 19.333 11.907 19.1341C10.5971 18.69 9.82326 18.1286 9.49963 17.3876C9.09051 16.451 9.53201 15.411 10.8257 14.2642C11.2713 13.8691 11.3841 13.7802 11.8309 13.4721C12.3248 13.1316 12.5031 13.1128 12.7327 13.377ZM22.5318 13.3425C21.9638 13.4586 21.5975 13.9077 21.4736 14.6401C21.3897 15.1362 21.4364 15.2812 21.6939 15.3239C21.807 15.3427 22.0496 15.3939 22.233 15.4377C22.4163 15.4815 22.5833 15.5173 22.604 15.5173C22.6248 15.5173 22.6418 15.3659 22.6418 15.1808C22.6418 14.8935 22.6625 14.8233 22.7832 14.701C22.9084 14.5741 22.9571 14.561 23.2092 14.5859C23.6194 14.6265 25.1124 14.9493 25.3149 15.0412C25.5813 15.1621 25.6278 15.3761 25.4722 15.764C25.3845 15.9826 25.3648 16.0874 25.4089 16.1009C25.5898 16.1568 26.2989 16.2967 26.401 16.2967C26.747 16.2967 26.963 15.1291 26.7099 14.6266C26.472 14.1545 26.1601 13.9698 25.308 13.7968C24.9754 13.7292 24.5549 13.6395 24.3734 13.5973C23.8511 13.4758 22.8743 13.2898 22.7958 13.2968C22.7564 13.3003 22.6376 13.3209 22.5318 13.3425ZM16.5671 15.5979C16.1644 15.6801 15.7936 15.843 15.4647 16.0822C15.2956 16.2052 15.2392 16.275 15.2872 16.3019C15.326 16.3236 15.7906 16.4309 16.3198 16.5402C17.3651 16.7563 19.5124 17.2053 20.6077 17.4369C20.9857 17.5168 21.5299 17.6299 21.8171 17.6884C22.1044 17.7469 22.8218 17.8972 23.4114 18.0226C24.001 18.148 24.7184 18.2983 25.0056 18.3566C25.2929 18.415 26.0103 18.5653 26.5999 18.6907C27.1895 18.816 27.9069 18.9665 28.1941 19.025C28.4814 19.0836 29.3225 19.259 30.0632 19.4148C30.804 19.5706 31.5151 19.7187 31.6433 19.7438L31.8764 19.7896L31.7331 19.5229C31.3435 18.798 30.4893 18.2249 29.3761 17.9416C29.0627 17.8618 27.5075 17.5281 26.38 17.2987C26.0927 17.2402 25.5485 17.127 25.1706 17.0472C23.7874 16.7548 21.8312 16.3451 21.3224 16.2414C21.0351 16.1829 20.3177 16.0321 19.7281 15.9063C17.8128 15.4978 17.3019 15.448 16.5671 15.5979ZM23.6313 15.6758C23.6313 15.727 24.2919 15.9066 24.3414 15.8688C24.3897 15.8319 24.2905 15.7838 24.0616 15.733C23.9308 15.7039 23.7804 15.6669 23.7275 15.6507C23.6746 15.6345 23.6313 15.6458 23.6313 15.6758ZM10.3325 16.7346C10.3273 16.9347 10.516 17.3304 10.6397 17.3784C10.6865 17.3966 10.6634 17.3148 10.578 17.1599C10.5029 17.0238 10.4181 16.8303 10.3895 16.7298L10.3375 16.5473L10.3325 16.7346ZM12.0175 20.8824C11.5204 21.0702 11.1162 21.6232 10.9859 22.2939C10.8625 22.9291 11.1645 23.5534 11.745 23.8629C11.8584 23.9233 13.7173 24.592 13.772 24.592C13.7846 24.592 13.7879 24.3499 13.7792 24.0541L13.7635 23.5162L12.9938 23.2459C11.9727 22.8873 11.8531 22.7532 12.073 22.2139C12.1339 22.0645 12.2321 21.9437 12.3406 21.8845C12.5231 21.7849 12.5234 21.785 13.2412 22.0037C13.8482 22.1888 13.7909 22.2278 13.7909 21.6286V21.1019L13.3924 20.9764C12.8884 20.8178 12.2959 20.7773 12.0175 20.8824ZM33.6778 20.9538L33.1968 21.0996V21.6275C33.1968 22.2379 33.1063 22.1997 33.9529 21.947C34.5737 21.7616 34.7428 21.8004 34.9067 22.166C35.1571 22.7244 35.0193 22.888 33.9939 23.2493L33.2242 23.5204L33.2085 24.0562C33.1998 24.3509 33.2028 24.592 33.2151 24.592C33.2793 24.592 35.1177 23.9287 35.2583 23.8548C35.5001 23.7278 35.7612 23.4569 35.8919 23.1975C36.0731 22.8377 36.0531 22.2339 35.845 21.7837C35.4289 20.883 34.7582 20.6262 33.6778 20.9538ZM14.7805 25.6192C14.7805 28.5942 14.8001 30.139 14.8404 30.3374C15.0242 31.2421 15.7118 32.1494 16.5018 32.5293C17.271 32.8992 16.9542 32.8831 23.4939 32.8844C30.067 32.8857 29.7658 32.9013 30.5118 32.5208C31.2027 32.1685 31.7672 31.5047 32.0524 30.7093L32.1797 30.3541L32.1948 25.775L32.2097 21.1959H23.4951H14.7805V25.6192ZM16.552 25.9699L16.5671 29.9087L16.72 30.2239C16.9239 30.6442 17.2453 30.9726 17.5285 31.0498L17.7534 31.1111L17.7375 31.5677L17.7216 32.0243L17.4536 32.0101C16.7429 31.9724 15.9898 31.1957 15.686 30.187L15.5501 29.736V25.9206C15.5501 23.8222 15.5666 22.0885 15.5868 22.0682C15.6069 22.0477 15.8289 22.031 16.0801 22.031H16.5368L16.552 25.9699ZM18.8634 34.7471C18.9169 34.7882 19.1941 35.1777 19.4792 35.6128C20.0412 36.4701 20.0997 36.6375 20.0404 37.2188C20.0179 37.4404 19.9606 37.5993 19.842 37.7697L19.6754 38.0091H21.0536H22.4316L22.2914 37.8403C22.2143 37.7475 22.1257 37.5784 22.0944 37.4646C22.0176 37.1845 22.0263 36.6881 22.1122 36.4503C22.1957 36.2193 23.0247 34.9494 23.2001 34.7839C23.3821 34.6122 23.6848 34.6295 23.8608 34.8218C24.1247 35.1103 24.8918 36.3405 24.9549 36.5764C25.0758 37.0292 24.9501 37.62 24.6729 37.9007C24.5668 38.0081 24.5787 38.0091 25.9772 38.0091H27.3887L27.2756 37.8838C26.9861 37.5632 26.8801 37.1148 26.987 36.6629C27.0643 36.3361 28.001 34.8291 28.1908 34.7262C28.3269 34.6525 28.5565 34.6526 28.693 34.7266C28.8498 34.8116 29.794 36.266 29.8798 36.5547C30.0221 37.0335 29.926 37.5513 29.6385 37.8552L29.4929 38.0091H30.4378H31.3826V38.9277V39.8463H23.5213H15.6601V38.929V38.0118L16.5752 37.9965L17.4904 37.9813L17.3565 37.8142C17.2828 37.7224 17.1926 37.5771 17.156 37.4915C17.071 37.2927 17.0701 36.7457 17.1544 36.5003C17.2308 36.2781 18.1558 34.8459 18.2896 34.7429C18.41 34.6501 18.7404 34.6525 18.8634 34.7471ZM23.2327 36.4135C22.9576 36.8378 22.9007 37.1008 23.0557 37.2311C23.1621 37.3205 23.8881 37.3259 23.9749 37.238C24.1333 37.0776 23.9695 36.5825 23.6188 36.1609L23.4939 36.0108L23.2327 36.4135ZM28.1773 36.4074C27.905 36.8323 27.8483 37.1007 28.0034 37.2311C28.1233 37.3318 28.8495 37.3261 28.9135 37.2239C29.0307 37.0365 28.9644 36.7679 28.7067 36.3859C28.5653 36.1763 28.4464 36.0049 28.4424 36.0049C28.4385 36.0049 28.3192 36.186 28.1773 36.4074ZM18.2764 36.4601C17.8672 37.1077 17.9381 37.3017 18.5839 37.3017C19.0376 37.3017 19.1508 37.2169 19.1038 36.9124C19.0774 36.7418 18.6489 36.0605 18.5679 36.0605C18.5464 36.0605 18.4152 36.2404 18.2764 36.4601Z" fill="#479E10"/>
</svg>
