<svg width="47" height="47" viewBox="0 0 47 47" fill="none" xmlns="http://www.w3.org/2000/svg">
<g clip-path="url(#clip0_514_54)">
<path fill-rule="evenodd" clip-rule="evenodd" d="M21.4048 0.0696569C16.4486 0.464822 11.8133 2.40513 8.07366 5.6499C7.45525 6.18653 6.1428 7.51159 5.6034 8.14392C2.39594 11.9041 0.475043 16.5443 0.0432224 21.5752C-0.0420972 22.5695 0.00627988 25.4005 0.123759 26.291C0.582242 29.765 1.56023 32.6795 3.20741 35.4807C3.8908 36.6429 4.51057 37.5211 5.57234 38.8317C5.95765 39.3073 7.6779 41.027 8.23858 41.4971C10.9835 43.7985 13.9635 45.3579 17.3093 46.2436C22.2291 47.5459 27.5372 47.1569 32.2072 45.1518C33.9064 44.4222 35.5927 43.4476 36.9839 42.3911C39.9963 40.1034 42.3965 37.1857 43.9999 33.8625C45.2736 31.2228 46.003 28.5974 46.2891 25.623C46.3785 24.6947 46.3789 22.3268 46.2899 21.3918C46.1575 20.0009 45.945 18.7926 45.5945 17.4391C45.2324 16.0409 44.7539 14.7281 44.113 13.375C41.8687 8.63629 38.1571 4.80941 33.531 2.46447C29.827 0.586912 25.5389 -0.259925 21.4048 0.0696569ZM14.3842 7.75533C15.2914 7.94116 16.0133 8.27442 16.4755 8.72069C17.0494 9.27474 17.2251 9.70354 17.2196 10.5357C17.2154 11.1647 17.0886 11.6198 16.7434 12.2443C16.1801 13.2635 14.9366 14.3317 13.5436 14.9932C12.6021 15.4402 12.4223 15.4497 12.2349 15.062C12.1451 14.8763 12.1435 14.8413 12.2176 14.696C12.2628 14.6077 12.4187 14.4383 12.5643 14.3195C13.2743 13.74 14.1282 12.7892 14.5009 12.1631C14.712 11.8084 14.8355 11.392 14.8355 11.0345C14.8355 10.7575 14.8068 10.6509 14.6763 10.4425C14.2963 9.83565 13.3388 9.39895 11.7615 9.1129C11.2539 9.02088 11.0862 8.89222 11.0862 8.59476C11.0862 8.45246 11.1265 8.34006 11.2096 8.25048C11.3562 8.09254 12.1396 7.78216 12.5815 7.70706C12.9357 7.64688 13.9929 7.67516 14.3842 7.75533ZM14.1758 8.81377C14.908 9.17865 15.3603 9.60316 15.6252 10.1738C15.7755 10.4976 15.7932 10.5913 15.7935 11.0646C15.7938 11.5125 15.7713 11.6485 15.6464 11.9527C15.5653 12.1502 15.5053 12.3181 15.5129 12.3259C15.5611 12.3747 16.018 11.5728 16.1381 11.2287C16.3858 10.5191 16.3199 9.98964 15.9277 9.53847C15.6096 9.17247 14.9182 8.84122 14.1758 8.69914C14.0699 8.67888 13.9339 8.65015 13.8734 8.63529C13.8129 8.62042 13.949 8.70076 14.1758 8.81377ZM23.4008 11.9013C23.5427 11.9327 23.7701 11.9817 23.9062 12.0101C26.5568 12.5628 26.5985 12.5763 27.0947 13.0463C27.8436 13.7558 27.9925 14.797 27.512 15.9654C27.4839 16.0339 27.5553 16.065 27.8768 16.1247C30.2133 16.558 31.1307 16.9273 31.9619 17.7692C32.4367 18.2502 32.7481 18.7668 32.8702 19.2763C32.9068 19.4294 32.9541 19.5742 32.9751 19.5981C32.9961 19.6221 33.1597 19.6004 33.3386 19.5499C34.0811 19.3405 34.3258 19.3016 34.6811 19.3365C35.2663 19.3939 35.6958 19.601 36.1241 20.0324C37.2293 21.1453 37.2764 22.8489 36.2288 23.8217C36.0522 23.9856 35.8235 24.1631 35.7205 24.2161C35.5415 24.308 34.0887 24.8359 33.489 25.0268L33.204 25.1176L33.1835 27.4858L33.1628 29.8541L33.0141 30.3392C32.7615 31.1632 32.4084 31.7428 31.8264 32.2884C31.3756 32.7112 30.8849 32.9875 30.1986 33.2052L29.7059 33.3615H23.5488C17.0246 33.3615 17.218 33.3686 16.4847 33.102C15.1752 32.626 14.2059 31.4591 13.9023 29.9933C13.8037 29.5176 13.7926 29.2459 13.7918 27.2921L13.7909 25.1197L13.5023 25.0282C12.9535 24.8541 11.6184 24.3644 11.3326 24.2323C10.9894 24.0737 10.5362 23.6584 10.3441 23.3264C9.75718 22.3122 9.94327 21.0251 10.8145 20.0717C11.1569 19.6971 11.603 19.4574 12.1395 19.3597C12.5727 19.2808 12.8019 19.3105 13.6654 19.5577L14.3371 19.7499L21.7726 19.7358L29.2081 19.7217L28.6049 19.5987C28.2732 19.5312 27.3956 19.3484 26.6549 19.1926C25.9141 19.0368 25.1967 18.8866 25.0606 18.8587C24.9246 18.8309 24.2071 18.6808 23.4664 18.525C22.7256 18.3692 21.8845 18.1939 21.5973 18.1353C21.31 18.0768 20.5926 17.9263 20.003 17.801C19.4134 17.6756 18.696 17.5252 18.4088 17.4668C18.1215 17.4083 17.5773 17.2949 17.1993 17.2147C16.8214 17.1346 15.9803 16.9584 15.3302 16.8233C14.289 16.6068 14.1335 16.5606 14.0246 16.4346C13.8383 16.2192 13.8636 15.9802 14.1102 15.625C14.4976 15.067 14.9168 14.7102 15.5058 14.4369C16.4762 13.9865 17.4354 13.9494 19.1418 14.296C19.7512 14.4197 20.3056 14.5352 20.3738 14.5525C20.491 14.5823 20.4978 14.5675 20.4978 14.2845C20.4978 13.9016 20.6555 13.3252 20.8542 12.9818C21.3617 12.1048 22.3769 11.674 23.4008 11.9013ZM12.7327 12.877C12.9382 13.1134 12.8987 13.3297 12.6019 13.5938C11.5282 14.5493 11.1894 15.1279 11.2931 15.8285C11.3499 16.2122 11.8174 16.8387 12.3616 17.2604C12.7511 17.5623 12.7792 17.5792 13.4478 17.9158C13.758 18.0719 14.0363 18.2461 14.0663 18.3029C14.2424 18.6362 14.0132 19.0264 13.6422 19.0249C13.3401 19.0236 12.4936 18.833 11.907 18.6341C10.5971 18.19 9.82326 17.6286 9.49963 16.8876C9.09051 15.951 9.53201 14.911 10.8257 13.7642C11.2713 13.3691 11.3841 13.2802 11.8309 12.9721C12.3248 12.6316 12.5031 12.6128 12.7327 12.877ZM22.5318 12.8425C21.9638 12.9586 21.5975 13.4077 21.4736 14.1401C21.3897 14.6362 21.4364 14.7812 21.6939 14.8239C21.807 14.8427 22.0496 14.8939 22.233 14.9377C22.4163 14.9815 22.5833 15.0173 22.604 15.0173C22.6248 15.0173 22.6418 14.8659 22.6418 14.6808C22.6418 14.3935 22.6625 14.3233 22.7832 14.201C22.9084 14.0741 22.9571 14.061 23.2092 14.0859C23.6194 14.1265 25.1124 14.4493 25.3149 14.5412C25.5813 14.6621 25.6278 14.8761 25.4722 15.264C25.3845 15.4826 25.3648 15.5874 25.4089 15.6009C25.5898 15.6568 26.2989 15.7967 26.401 15.7967C26.747 15.7967 26.963 14.6291 26.7099 14.1266C26.472 13.6545 26.1601 13.4698 25.308 13.2968C24.9754 13.2292 24.5549 13.1395 24.3734 13.0973C23.8511 12.9758 22.8743 12.7898 22.7958 12.7968C22.7564 12.8003 22.6376 12.8209 22.5318 12.8425ZM16.5671 15.0979C16.1645 15.1801 15.7937 15.343 15.4647 15.5822C15.2956 15.7052 15.2392 15.775 15.2872 15.8019C15.326 15.8236 15.7906 15.9309 16.3198 16.0402C17.3651 16.2563 19.5124 16.7053 20.6077 16.9369C20.9857 17.0168 21.5299 17.1299 21.8171 17.1884C22.1044 17.2469 22.8218 17.3972 23.4114 17.5226C24.001 17.648 24.7184 17.7983 25.0056 17.8566C25.2929 17.915 26.0103 18.0653 26.5999 18.1907C27.1895 18.316 27.9069 18.4665 28.1941 18.525C28.4814 18.5836 29.3225 18.759 30.0632 18.9148C30.804 19.0706 31.5151 19.2187 31.6433 19.2438L31.8764 19.2896L31.7331 19.0229C31.3435 18.298 30.4893 17.7249 29.3761 17.4416C29.0627 17.3618 27.5075 17.0281 26.38 16.7987C26.0927 16.7402 25.5485 16.627 25.1706 16.5472C23.7874 16.2548 21.8312 15.8451 21.3224 15.7414C21.0351 15.6829 20.3177 15.5321 19.7281 15.4063C17.8128 14.9978 17.3019 14.948 16.5671 15.0979ZM23.6313 15.1758C23.6313 15.227 24.2919 15.4066 24.3414 15.3688C24.3897 15.3319 24.2905 15.2838 24.0616 15.233C23.9308 15.2039 23.7804 15.1669 23.7275 15.1507C23.6746 15.1345 23.6313 15.1458 23.6313 15.1758ZM10.3325 16.2346C10.3273 16.4347 10.516 16.8304 10.6397 16.8784C10.6865 16.8966 10.6634 16.8148 10.578 16.6599C10.5029 16.5238 10.4181 16.3303 10.3895 16.2298L10.3375 16.0473L10.3325 16.2346ZM12.0175 20.3824C11.5204 20.5702 11.1162 21.1232 10.9859 21.7939C10.8625 22.4291 11.1645 23.0534 11.745 23.3629C11.8584 23.4233 13.7173 24.092 13.772 24.092C13.7846 24.092 13.7879 23.8499 13.7792 23.5541L13.7635 23.0162L12.9938 22.7459C11.9727 22.3873 11.8531 22.2532 12.073 21.7139C12.1339 21.5645 12.2321 21.4437 12.3406 21.3845C12.5231 21.2849 12.5234 21.285 13.2412 21.5037C13.8482 21.6888 13.7909 21.7278 13.7909 21.1286V20.6019L13.3924 20.4764C12.8884 20.3178 12.2959 20.2773 12.0175 20.3824ZM33.6778 20.4538L33.1968 20.5996V21.1275C33.1968 21.7379 33.1063 21.6997 33.9529 21.447C34.5737 21.2616 34.7428 21.3004 34.9067 21.666C35.1571 22.2244 35.0193 22.388 33.9939 22.7493L33.2242 23.0204L33.2085 23.5562C33.1998 23.8509 33.2028 24.092 33.2151 24.092C33.2793 24.092 35.1177 23.4287 35.2583 23.3548C35.5001 23.2278 35.7612 22.9569 35.8919 22.6975C36.0731 22.3377 36.0531 21.7339 35.845 21.2837C35.4289 20.383 34.7582 20.1262 33.6778 20.4538ZM14.7805 25.1192C14.7805 28.0942 14.8001 29.639 14.8404 29.8374C15.0242 30.7421 15.7118 31.6494 16.5018 32.0293C17.271 32.3992 16.9542 32.3831 23.4939 32.3844C30.067 32.3857 29.7658 32.4013 30.5118 32.0208C31.2027 31.6685 31.7672 31.0047 32.0524 30.2093L32.1797 29.8541L32.1948 25.275L32.2097 20.6959H23.4951H14.7805V25.1192ZM16.552 25.4699L16.5671 29.4087L16.72 29.7239C16.9239 30.1442 17.2453 30.4726 17.5285 30.5498L17.7534 30.6111L17.7375 31.0677L17.7216 31.5243L17.4536 31.5101C16.7429 31.4724 15.9898 30.6957 15.686 29.687L15.5501 29.236V25.4206C15.5501 23.3222 15.5666 21.5885 15.5868 21.5682C15.6069 21.5477 15.8289 21.531 16.0801 21.531H16.5368L16.552 25.4699ZM18.8634 34.2471C18.9169 34.2882 19.1941 34.6777 19.4792 35.1128C20.0412 35.9701 20.0997 36.1375 20.0404 36.7188C20.0179 36.9404 19.9606 37.0993 19.842 37.2697L19.6754 37.5091H21.0536H22.4316L22.2914 37.3403C22.2143 37.2475 22.1257 37.0784 22.0944 36.9646C22.0176 36.6845 22.0263 36.1881 22.1122 35.9503C22.1957 35.7193 23.0247 34.4494 23.2001 34.2839C23.3821 34.1122 23.6848 34.1295 23.8608 34.3218C24.1247 34.6103 24.8918 35.8405 24.9549 36.0764C25.0758 36.5292 24.9501 37.12 24.6729 37.4007C24.5668 37.5081 24.5787 37.5091 25.9772 37.5091H27.3887L27.2756 37.3838C26.9861 37.0632 26.8801 36.6148 26.987 36.1629C27.0643 35.8361 28.001 34.3291 28.1908 34.2262C28.3269 34.1525 28.5565 34.1526 28.693 34.2266C28.8498 34.3116 29.794 35.766 29.8798 36.0547C30.0221 36.5335 29.926 37.0513 29.6385 37.3552L29.4929 37.5091H30.4378H31.3826V38.4277V39.3463H23.5213H15.6601V38.429V37.5118L16.5752 37.4965L17.4904 37.4813L17.3565 37.3142C17.2828 37.2224 17.1926 37.0771 17.156 36.9915C17.071 36.7927 17.0701 36.2457 17.1544 36.0003C17.2308 35.7781 18.1558 34.3459 18.2896 34.2429C18.41 34.1501 18.7404 34.1525 18.8634 34.2471ZM23.2327 35.9135C22.9576 36.3378 22.9007 36.6008 23.0557 36.7311C23.1621 36.8205 23.8881 36.8259 23.9749 36.738C24.1333 36.5776 23.9695 36.0825 23.6188 35.6609L23.4939 35.5108L23.2327 35.9135ZM28.1773 35.9074C27.905 36.3323 27.8483 36.6007 28.0034 36.7311C28.1233 36.8318 28.8495 36.8261 28.9135 36.7239C29.0307 36.5365 28.9644 36.2679 28.7067 35.8859C28.5653 35.6763 28.4464 35.5049 28.4424 35.5049C28.4385 35.5049 28.3192 35.686 28.1773 35.9074ZM18.2764 35.9601C17.8672 36.6077 17.9381 36.8017 18.5839 36.8017C19.0376 36.8017 19.1508 36.7169 19.1038 36.4124C19.0774 36.2418 18.6489 35.5605 18.5679 35.5605C18.5464 35.5605 18.4152 35.7404 18.2764 35.9601Z" fill="#479E10"/>
</g>
<defs>
<clipPath id="clip0_514_54">
<rect width="46.3564" height="47" fill="white"/>
</clipPath>
</defs>
</svg>
