<svg width="1440" height="481" viewBox="0 0 1440 481" fill="none" xmlns="http://www.w3.org/2000/svg">
<path d="M1158.01 543C1053.04 543.049 949.069 537.186 852.057 525.746C755.045 514.306 666.901 497.515 592.68 476.334C499.873 449.905 374.11 435.062 242.99 435.062C111.871 435.062 -13.8929 449.905 -106.7 476.334C-120.859 480.374 -137.668 483.579 -156.168 485.766C-174.668 487.952 -194.496 489.078 -214.52 489.078C-234.544 489.078 -254.372 487.952 -272.871 485.766C-291.371 483.579 -308.18 480.374 -322.34 476.334C-336.499 472.294 -347.73 467.498 -355.393 462.219C-363.056 456.94 -367 451.283 -367 445.569C-367 439.855 -363.056 434.198 -355.393 428.919C-347.73 423.64 -336.499 418.844 -322.34 414.804C-172.256 372.101 31.0431 348.122 242.99 348.122C454.937 348.122 658.236 372.101 808.32 414.804C901.166 441.212 1026.92 456.041 1158.01 456.041C1289.1 456.041 1414.85 441.212 1507.7 414.804C1521.86 410.764 1538.67 407.559 1557.17 405.372C1575.67 403.186 1595.5 402.06 1615.52 402.06C1635.54 402.06 1655.37 403.186 1673.87 405.372C1692.37 407.559 1709.18 410.764 1723.34 414.804C1737.5 418.844 1748.73 423.64 1756.39 428.919C1764.06 434.198 1768 439.855 1768 445.569C1768 451.283 1764.06 456.94 1756.39 462.219C1748.73 467.498 1737.5 472.294 1723.34 476.334C1649.13 497.52 1560.99 514.316 1463.98 525.756C1366.96 537.196 1262.98 543.056 1158.01 543ZM1158.01 368.939C1053.04 368.988 949.069 363.125 852.057 351.685C755.045 340.245 666.901 323.454 592.68 302.273C499.873 275.844 374.11 261.001 242.99 261.001C111.871 261.001 -13.8929 275.844 -106.7 302.273C-135.296 310.433 -174.079 315.017 -214.52 315.017C-254.96 315.017 -293.744 310.433 -322.34 302.273C-350.935 294.114 -367 283.047 -367 271.508C-367 259.969 -350.935 248.902 -322.34 240.743C-172.256 198.041 31.0431 174.061 242.99 174.061C454.937 174.061 658.236 198.041 808.32 240.743C901.166 267.151 1026.92 281.98 1158.01 281.98C1289.1 281.98 1414.85 267.151 1507.7 240.743C1536.3 232.583 1575.08 228 1615.52 228C1655.96 228 1694.74 232.583 1723.34 240.743C1751.94 248.902 1768 259.969 1768 271.508C1768 283.047 1751.94 294.114 1723.34 302.273C1649.13 323.46 1560.99 340.255 1463.98 351.695C1366.96 363.135 1262.98 368.995 1158.01 368.939ZM1158.01 194.878C1053.04 194.927 949.069 189.064 852.057 177.624C755.045 166.184 666.901 149.393 592.68 128.213C499.873 101.783 374.11 86.94 242.99 86.94C111.871 86.94 -13.8929 101.783 -106.7 128.213C-120.859 132.253 -137.668 135.458 -156.168 137.644C-174.668 139.831 -194.496 140.956 -214.52 140.956C-234.544 140.956 -254.372 139.831 -272.871 137.644C-291.371 135.458 -308.181 132.253 -322.34 128.213C-336.499 124.172 -347.73 119.376 -355.393 114.097C-363.056 108.819 -367 103.161 -367 97.4474C-367 91.7337 -363.056 86.076 -355.393 80.7973C-347.73 75.5186 -336.499 70.7223 -322.34 66.6821C-172.256 23.9797 31.0431 0 242.99 0C454.937 0 658.236 23.9797 808.32 66.6821C901.166 93.0901 1026.92 107.919 1158.01 107.919C1289.1 107.919 1414.85 93.0901 1507.7 66.6821C1536.3 58.5227 1575.08 53.9387 1615.52 53.9387C1655.96 53.9387 1694.74 58.5227 1723.34 66.6821C1751.94 74.8416 1768 85.9081 1768 97.4474C1768 108.987 1751.94 120.053 1723.34 128.213C1649.13 149.399 1560.99 166.194 1463.98 177.634C1366.96 189.075 1262.98 194.935 1158.01 194.878Z" fill="#EDF5E7"/>
</svg>
